<svg width="99" height="18" viewBox="0 0 99 18" fill="none" xmlns="http://www.w3.org/2000/svg">
<path d="M15.164 5.136L13.124 12.528L10.94 5.136H8.012L5.828 12.504L3.788 5.136H0.5L4.316 17.136H7.268L9.476 9.864L11.684 17.136H14.636L18.452 5.136H15.164ZM25.364 17.472C28.892 17.472 31.724 14.712 31.724 11.136C31.724 7.56 28.892 4.8 25.364 4.8C21.836 4.8 19.028 7.56 19.028 11.136C19.028 14.712 21.836 17.472 25.364 17.472ZM25.364 14.448C23.54 14.448 22.124 13.08 22.124 11.136C22.124 9.192 23.54 7.824 25.364 7.824C27.212 7.824 28.628 9.192 28.628 11.136C28.628 13.08 27.212 14.448 25.364 14.448ZM36.998 7.2V5.136H33.902V17.136H36.998V11.4C36.998 8.88 39.038 8.16 40.646 8.352V4.896C39.134 4.896 37.622 5.568 36.998 7.2ZM53.52 17.136L48.553 11.064L53.377 5.136H49.68L45.552 10.416V0.336H42.456V17.136H45.552V11.688L49.92 17.136H53.52ZM61.522 0C57.706 0 55.882 1.704 55.882 5.016V5.136H54.154V8.112H55.882V17.136H58.978V8.112H60.97V5.136H58.978V5.016C58.978 3.384 59.914 2.712 61.522 2.712C61.834 2.712 62.17 2.712 62.506 2.736V17.136H65.602V0.504C64.282 0.24 63.034 0 61.522 0ZM74.137 17.472C77.665 17.472 80.497 14.712 80.497 11.136C80.497 7.56 77.665 4.8 74.137 4.8C70.609 4.8 67.801 7.56 67.801 11.136C67.801 14.712 70.609 17.472 74.137 17.472ZM74.137 14.448C72.313 14.448 70.897 13.08 70.897 11.136C70.897 9.192 72.313 7.824 74.137 7.824C75.985 7.824 77.401 9.192 77.401 11.136C77.401 13.08 75.985 14.448 74.137 14.448ZM95.719 5.136L93.679 12.528L91.495 5.136H88.567L86.383 12.504L84.343 5.136H81.055L84.871 17.136H87.823L90.031 9.864L92.239 17.136H95.191L99.007 5.136H95.719Z" fill="white"/>
</svg>
